<svg xmlns="http://www.w3.org/2000/svg" xmlns:xlink="http://www.w3.org/1999/xlink" width="309" zoomAndPan="magnify" viewBox="0 0 231.75 383.249997" height="511" preserveAspectRatio="xMidYMid meet" version="1.0"><defs><filter x="0%" y="0%" width="100%" height="100%" id="b3a6c99c1c"><feColorMatrix values="0 0 0 0 1 0 0 0 0 1 0 0 0 0 1 0 0 0 1 0" color-interpolation-filters="sRGB"/></filter><clipPath id="9b4e7315b4"><path d="M 74 331 L 175 331 L 175 382.5 L 74 382.5 Z M 74 331 " clip-rule="nonzero"/></clipPath><mask id="aa4f1cdbfe"><g filter="url(#b3a6c99c1c)"><rect x="-23.175" width="278.1" fill="#000000" y="-38.325" height="459.899996" fill-opacity="0.43"/></g></mask><clipPath id="eda67040d2"><path d="M 0.363281 0.523438 L 100.472656 0.523438 L 100.472656 51.496094 L 0.363281 51.496094 Z M 0.363281 0.523438 " clip-rule="nonzero"/></clipPath><clipPath id="14405314de"><path d="M 50.417969 0.523438 C 22.773438 0.523438 0.363281 11.933594 0.363281 26.007812 C 0.363281 40.085938 22.773438 51.496094 50.417969 51.496094 C 78.0625 51.496094 100.472656 40.085938 100.472656 26.007812 C 100.472656 11.933594 78.0625 0.523438 50.417969 0.523438 Z M 50.417969 0.523438 " clip-rule="nonzero"/></clipPath><clipPath id="d5f43dda57"><rect x="0" width="101" y="0" height="52"/></clipPath><clipPath id="ffb1e1f3ee"><path d="M 54 0.152344 L 195 0.152344 L 195 364.335938 L 54 364.335938 Z M 54 0.152344 " clip-rule="nonzero"/></clipPath><clipPath id="ea87ac6511"><path d="M 53.59375 0.152344 L 195 0.152344 L 195 364.335938 L 53.59375 364.335938 Z M 53.59375 0.152344 " clip-rule="nonzero"/></clipPath><mask id="2552e1980b"><g filter="url(#b3a6c99c1c)"><rect x="-23.175" width="278.1" fill="#000000" y="-38.325" height="459.899996" fill-opacity="0.8"/></g></mask><clipPath id="84f6bf8916"><path d="M 1 0.152344 L 141.839844 0.152344 L 141.839844 364.328125 L 1 364.328125 Z M 1 0.152344 " clip-rule="nonzero"/></clipPath><clipPath id="ab83ef9952"><rect x="0" width="142" y="0" height="365"/></clipPath><clipPath id="33cf179641"><path d="M 0.101562 132 L 127 132 L 127 153 L 0.101562 153 Z M 0.101562 132 " clip-rule="nonzero"/></clipPath><clipPath id="362f89dadd"><path d="M 130 86 L 231.398438 86 L 231.398438 110 L 130 110 Z M 130 86 " clip-rule="nonzero"/></clipPath><clipPath id="941d649de4"><path d="M 105 98 L 231.398438 98 L 231.398438 222 L 105 222 Z M 105 98 " clip-rule="nonzero"/></clipPath><clipPath id="f92670cb7d"><path d="M 121 9 L 231.398438 9 L 231.398438 27 L 121 27 Z M 121 9 " clip-rule="nonzero"/></clipPath></defs><g clip-path="url(#9b4e7315b4)"><g mask="url(#aa4f1cdbfe)"><g transform="matrix(1, 0, 0, 1, 74, 331)"><g clip-path="url(#d5f43dda57)"><g clip-path="url(#eda67040d2)"><g clip-path="url(#14405314de)"><path fill="#dfe9ed" d="M 0.363281 0.523438 L 100.472656 0.523438 L 100.472656 51.496094 L 0.363281 51.496094 Z M 0.363281 0.523438 " fill-opacity="1" fill-rule="nonzero"/></g></g></g></g></g></g><g clip-path="url(#ffb1e1f3ee)"><path fill="#cfcfcf" d="M 190.78125 197.476562 C 189.105469 196.484375 188.039062 194.734375 187.507812 193.515625 C 187.125 192.679688 186.515625 191.992188 185.753906 191.535156 L 181.339844 188.871094 C 181.1875 188.792969 181.113281 188.640625 181.1875 188.488281 C 182.179688 181.179688 177.382812 135.253906 177.382812 132.742188 C 177.382812 132.132812 176.773438 128.019531 176.316406 125.128906 C 176.089844 123.527344 176.011719 121.851562 176.316406 120.253906 C 177.914062 109.972656 174.792969 94.816406 173.5 89.027344 L 173.5 88.113281 C 180.730469 61.992188 163.148438 62.296875 162.386719 62.296875 L 162.3125 62.296875 C 158.277344 61.765625 154.394531 60.851562 150.589844 59.480469 C 145.03125 57.5 140.390625 55.976562 136.964844 54.988281 C 134.984375 54.378906 133.617188 52.550781 133.617188 50.492188 L 133.617188 45.847656 C 133.617188 45.773438 133.617188 45.695312 133.691406 45.621094 C 136.585938 42.039062 138.488281 37.242188 139.703125 32.445312 C 139.78125 32.292969 139.855469 32.214844 140.085938 32.214844 C 141.761719 32.214844 143.96875 29.550781 144.273438 26.65625 C 144.578125 23.609375 143.511719 21.097656 141.835938 20.945312 C 141.761719 20.945312 141.761719 20.945312 141.683594 20.945312 C 141.761719 19.496094 141.835938 18.128906 141.835938 16.984375 C 141.609375 7.464844 133.996094 1.144531 124.328125 0.152344 C 114.585938 1.144531 107.050781 7.464844 106.972656 16.984375 C 106.972656 18.128906 107.050781 19.496094 107.125 20.945312 C 107.050781 20.945312 107.050781 20.945312 106.972656 20.945312 C 105.300781 21.097656 104.234375 23.609375 104.539062 26.65625 C 104.917969 29.625 107.125 32.214844 108.726562 32.214844 C 108.878906 32.214844 109.03125 32.292969 109.105469 32.445312 C 110.324219 37.242188 112.226562 42.039062 115.117188 45.621094 C 115.195312 45.695312 115.195312 45.773438 115.195312 45.847656 L 115.195312 50.417969 C 115.195312 52.472656 113.824219 54.300781 111.847656 54.910156 C 108.421875 55.902344 103.777344 57.425781 98.222656 59.402344 C 94.414062 60.773438 90.535156 61.6875 86.5 62.222656 L 86.421875 62.222656 C 85.660156 62.222656 68.078125 61.917969 75.308594 88.039062 L 75.308594 88.953125 C 73.941406 94.742188 70.894531 109.972656 72.492188 120.175781 C 72.722656 121.777344 72.722656 123.453125 72.492188 125.050781 C 72.035156 127.945312 71.429688 132.058594 71.429688 132.667969 C 71.429688 135.179688 66.632812 181.101562 67.621094 188.414062 C 67.621094 188.566406 67.546875 188.71875 67.46875 188.792969 L 63.054688 191.460938 C 62.292969 191.917969 61.683594 192.601562 61.304688 193.4375 C 60.773438 194.65625 59.707031 196.410156 58.03125 197.398438 C 55.441406 198.921875 53.691406 198.085938 54.300781 199.835938 C 54.910156 201.589844 57.878906 201.4375 58.945312 201.132812 C 59.707031 200.902344 61.609375 201.511719 63.96875 199.53125 L 63.816406 200.066406 L 63.664062 200.523438 C 63.585938 200.75 62.597656 203.492188 62.523438 203.644531 L 58.335938 211.945312 C 57.804688 212.628906 58.03125 213.390625 58.640625 213.695312 L 59.476562 214.078125 C 59.933594 214.304688 60.542969 214.152344 60.921875 213.773438 L 65.796875 205.699219 C 66.101562 205.320312 66.554688 205.320312 66.9375 205.546875 L 67.089844 205.625 C 67.316406 205.851562 67.46875 206.15625 67.316406 206.460938 L 63.890625 217.960938 C 63.664062 218.648438 64.042969 219.332031 64.730469 219.484375 L 65.1875 219.636719 C 65.71875 219.789062 66.328125 219.484375 66.554688 218.953125 L 71.046875 206.917969 C 71.199219 206.539062 71.199219 206.539062 71.582031 206.460938 L 72.1875 206.691406 C 72.339844 206.917969 72.417969 207.148438 72.417969 207.453125 L 72.417969 217.351562 C 72.417969 218.039062 72.722656 218.648438 73.253906 219.027344 C 74.246094 219.714844 75.082031 219.027344 75.15625 218.265625 L 75.84375 207.679688 C 75.84375 207.300781 76.222656 206.917969 76.605469 206.917969 C 76.984375 206.917969 77.289062 207.222656 77.363281 207.605469 L 78.203125 213.316406 C 78.277344 213.925781 78.886719 214.457031 79.496094 214.382812 C 79.953125 214.304688 80.332031 214 80.484375 213.542969 L 81.324219 205.089844 C 81.550781 203.1875 82.007812 197.398438 81.703125 195.496094 L 80.257812 188.566406 C 80.179688 188.414062 80.179688 188.261719 80.027344 188.183594 C 79.953125 188.109375 79.953125 188.03125 79.953125 187.878906 C 80.636719 183.386719 83.835938 179.425781 89.390625 149.800781 C 89.542969 148.964844 89.621094 148.125 89.695312 147.289062 L 90.304688 138.074219 C 92.664062 129.238281 93.578125 112.179688 93.804688 107.609375 C 94.261719 107.535156 94.71875 107.761719 94.796875 108.21875 L 96.015625 115.457031 L 96.015625 115.53125 C 96.015625 119.339844 96.015625 123.527344 96.773438 128.402344 C 97.078125 130.535156 96.316406 134.570312 95.40625 139.0625 C 95.023438 140.585938 94.566406 142.414062 94.109375 144.546875 C 89.390625 162.597656 89.925781 174.550781 89.542969 181.789062 C 89.542969 181.863281 89.542969 181.863281 89.542969 181.941406 C 89.542969 182.015625 89.542969 182.09375 89.542969 182.09375 L 89.542969 183.386719 C 89.390625 188.335938 89.773438 190.621094 89.773438 190.773438 C 89.925781 195.34375 90.304688 200.597656 91.066406 206.460938 C 92.359375 219.257812 94.644531 239.132812 97.992188 254.746094 C 98.753906 258.402344 98.753906 262.207031 98.070312 265.941406 C 96.851562 272.109375 95.40625 282.3125 96.925781 290.082031 C 99.132812 301.199219 106.519531 335.167969 107.582031 339.734375 C 107.582031 339.8125 107.582031 339.964844 107.507812 340.039062 C 107.203125 340.421875 106.898438 340.800781 106.519531 341.105469 C 105.757812 341.945312 104.765625 343.46875 104.386719 346.210938 C 104.007812 348.796875 98.222656 357.175781 99.285156 358.851562 C 100.125 360.222656 109.03125 362.277344 114.28125 362.964844 C 115.5 363.117188 114.585938 364.335938 118.390625 363.953125 C 119.6875 363.800781 119.609375 363.648438 119.839844 360.753906 C 119.839844 360.222656 120.523438 359.230469 120.523438 358.621094 C 120.597656 355.195312 120.371094 349.558594 119.992188 340.191406 L 118.773438 311.40625 C 118.773438 311.328125 120.828125 294.195312 119.992188 290.460938 C 119.152344 286.730469 121.285156 265.558594 121.285156 265.484375 L 121.285156 246.0625 C 121.285156 245.605469 123.113281 215.980469 124.328125 208.214844 C 125.546875 215.980469 127.375 245.605469 127.375 246.0625 L 127.375 265.484375 C 127.375 265.558594 129.503906 286.730469 128.667969 290.460938 C 127.832031 294.195312 129.886719 311.328125 129.886719 311.40625 L 128.667969 340.191406 C 128.289062 349.558594 128.058594 355.195312 128.136719 358.621094 C 128.136719 359.230469 128.820312 360.222656 128.820312 360.753906 C 129.046875 363.648438 128.972656 363.800781 130.265625 363.953125 C 134.070312 364.335938 133.160156 363.117188 134.375 362.964844 C 139.628906 362.277344 148.535156 360.222656 149.371094 358.851562 C 150.4375 357.175781 144.652344 348.796875 144.273438 346.210938 C 143.890625 343.46875 142.902344 341.945312 142.140625 341.105469 C 141.835938 340.800781 141.457031 340.34375 141.152344 340.039062 C 141.074219 339.964844 141.074219 339.886719 141.074219 339.734375 C 142.066406 335.167969 149.523438 301.199219 151.730469 290.082031 C 153.253906 282.3125 151.808594 272.109375 150.589844 265.941406 C 149.90625 262.207031 149.90625 258.402344 150.664062 254.746094 C 154.015625 239.132812 156.296875 219.257812 157.59375 206.460938 C 158.355469 200.597656 158.734375 195.34375 158.886719 190.773438 C 158.886719 190.621094 159.265625 188.335938 159.113281 183.386719 L 159.113281 182.09375 C 159.113281 182.09375 159.113281 182.015625 159.113281 181.941406 C 159.113281 181.863281 159.113281 181.863281 159.113281 181.789062 C 158.734375 174.550781 159.265625 162.597656 154.546875 144.546875 C 154.089844 142.414062 153.632812 140.585938 153.253906 139.0625 C 152.339844 134.570312 151.578125 130.535156 151.882812 128.402344 C 152.644531 123.527344 152.644531 119.339844 152.644531 115.53125 L 152.644531 115.457031 L 153.863281 108.21875 C 153.9375 107.761719 154.394531 107.535156 154.851562 107.609375 C 155.082031 112.179688 155.992188 129.238281 158.355469 138.074219 L 158.960938 147.289062 C 159.039062 148.125 159.113281 148.964844 159.265625 149.800781 C 164.824219 179.425781 168.019531 183.3125 168.707031 187.878906 C 168.707031 187.957031 168.707031 188.109375 168.628906 188.183594 C 168.554688 188.261719 168.476562 188.414062 168.402344 188.566406 L 166.953125 195.496094 C 166.648438 197.398438 167.105469 203.1875 167.335938 205.089844 L 168.171875 213.542969 C 168.324219 214 168.707031 214.304688 169.164062 214.382812 C 169.769531 214.457031 170.378906 213.925781 170.457031 213.316406 L 171.292969 207.605469 C 171.371094 207.222656 171.675781 206.917969 172.054688 206.917969 C 172.433594 206.917969 172.816406 207.300781 172.816406 207.679688 L 173.5 218.265625 C 173.578125 219.027344 174.492188 219.789062 175.402344 219.027344 C 175.9375 218.648438 176.242188 217.960938 176.242188 217.351562 L 176.242188 207.453125 C 176.242188 207.148438 176.316406 206.917969 176.46875 206.691406 L 177.078125 206.460938 C 177.457031 206.539062 177.457031 206.539062 177.609375 206.917969 L 182.101562 218.953125 C 182.332031 219.484375 182.9375 219.789062 183.472656 219.636719 L 183.929688 219.484375 C 184.613281 219.332031 184.996094 218.648438 184.765625 217.960938 L 181.339844 206.460938 C 181.1875 206.15625 181.339844 205.851562 181.570312 205.625 L 181.722656 205.546875 C 182.101562 205.320312 182.558594 205.320312 182.863281 205.699219 L 187.734375 213.773438 C 188.117188 214.152344 188.722656 214.304688 189.179688 214.078125 L 190.019531 213.695312 C 190.628906 213.390625 190.855469 212.628906 190.476562 212.023438 L 186.289062 203.71875 C 186.210938 203.566406 185.222656 200.828125 185.148438 200.597656 L 184.996094 200.140625 L 184.84375 199.609375 C 187.203125 201.589844 189.105469 200.980469 189.867188 201.207031 C 190.929688 201.511719 193.898438 201.664062 194.507812 199.914062 C 195.117188 198.160156 193.367188 199 190.78125 197.476562 Z M 190.78125 197.476562 " fill-opacity="1" fill-rule="nonzero"/></g><g clip-path="url(#ea87ac6511)"><g mask="url(#2552e1980b)"><g transform="matrix(1, 0, 0, 1, 53, -0.000000000000050422)"><g clip-path="url(#ab83ef9952)"><g clip-path="url(#84f6bf8916)"><path fill="#cfcfcf" d="M 137.78125 197.476562 C 136.105469 196.484375 135.039062 194.734375 134.507812 193.515625 C 134.125 192.679688 133.515625 191.992188 132.753906 191.535156 L 128.339844 188.871094 C 128.1875 188.792969 128.113281 188.640625 128.1875 188.488281 C 129.179688 181.179688 124.382812 135.253906 124.382812 132.742188 C 124.382812 132.132812 123.773438 128.019531 123.316406 125.128906 C 123.089844 123.527344 123.011719 121.851562 123.316406 120.253906 C 124.914062 109.972656 121.792969 94.816406 120.5 89.027344 L 120.5 88.113281 C 127.730469 61.992188 110.148438 62.296875 109.386719 62.296875 L 109.3125 62.296875 C 105.277344 61.765625 101.394531 60.851562 97.589844 59.480469 C 92.03125 57.5 87.390625 55.976562 83.964844 54.988281 C 81.984375 54.378906 80.617188 52.550781 80.617188 50.492188 L 80.617188 45.847656 C 80.617188 45.773438 80.617188 45.695312 80.691406 45.621094 C 83.585938 42.039062 85.488281 37.242188 86.703125 32.445312 C 86.78125 32.292969 86.855469 32.214844 87.085938 32.214844 C 88.761719 32.214844 90.96875 29.550781 91.273438 26.65625 C 91.578125 23.609375 90.511719 21.097656 88.835938 20.945312 C 88.761719 20.945312 88.761719 20.945312 88.683594 20.945312 C 88.761719 19.496094 88.835938 18.128906 88.835938 16.984375 C 88.609375 7.464844 80.996094 1.144531 71.328125 0.152344 C 61.585938 1.144531 54.050781 7.464844 53.972656 16.984375 C 53.972656 18.128906 54.050781 19.496094 54.125 20.945312 C 54.050781 20.945312 54.050781 20.945312 53.972656 20.945312 C 52.300781 21.097656 51.234375 23.609375 51.539062 26.65625 C 51.917969 29.625 54.125 32.214844 55.726562 32.214844 C 55.878906 32.214844 56.03125 32.292969 56.105469 32.445312 C 57.324219 37.242188 59.226562 42.039062 62.117188 45.621094 C 62.195312 45.695312 62.195312 45.773438 62.195312 45.847656 L 62.195312 50.417969 C 62.195312 52.472656 60.824219 54.300781 58.847656 54.910156 C 55.421875 55.902344 50.777344 57.425781 45.222656 59.402344 C 41.414062 60.773438 37.535156 61.6875 33.5 62.222656 L 33.421875 62.222656 C 32.660156 62.222656 15.078125 61.917969 22.308594 88.039062 L 22.308594 88.953125 C 20.941406 94.742188 17.894531 109.972656 19.492188 120.175781 C 19.722656 121.777344 19.722656 123.453125 19.492188 125.050781 C 19.035156 127.945312 18.429688 132.058594 18.429688 132.667969 C 18.429688 135.179688 13.632812 181.101562 14.621094 188.414062 C 14.621094 188.566406 14.546875 188.71875 14.46875 188.792969 L 10.054688 191.460938 C 9.292969 191.917969 8.683594 192.601562 8.304688 193.4375 C 7.773438 194.65625 6.707031 196.410156 5.03125 197.398438 C 2.441406 198.921875 0.691406 198.085938 1.300781 199.835938 C 1.910156 201.589844 4.878906 201.4375 5.945312 201.132812 C 6.707031 200.902344 8.609375 201.511719 10.96875 199.53125 L 10.816406 200.066406 L 10.664062 200.523438 C 10.585938 200.75 9.597656 203.492188 9.523438 203.644531 L 5.335938 211.945312 C 4.804688 212.628906 5.03125 213.390625 5.640625 213.695312 L 6.476562 214.078125 C 6.933594 214.304688 7.542969 214.152344 7.921875 213.773438 L 12.796875 205.699219 C 13.101562 205.320312 13.554688 205.320312 13.9375 205.546875 L 14.089844 205.625 C 14.316406 205.851562 14.46875 206.15625 14.316406 206.460938 L 10.890625 217.960938 C 10.664062 218.648438 11.042969 219.332031 11.730469 219.484375 L 12.1875 219.636719 C 12.71875 219.789062 13.328125 219.484375 13.554688 218.953125 L 18.046875 206.917969 C 18.199219 206.539062 18.199219 206.539062 18.582031 206.460938 L 19.1875 206.691406 C 19.339844 206.917969 19.417969 207.148438 19.417969 207.453125 L 19.417969 217.351562 C 19.417969 218.039062 19.722656 218.648438 20.253906 219.027344 C 21.246094 219.714844 22.082031 219.027344 22.15625 218.265625 L 22.84375 207.679688 C 22.84375 207.300781 23.222656 206.917969 23.605469 206.917969 C 23.984375 206.917969 24.289062 207.222656 24.363281 207.605469 L 25.203125 213.316406 C 25.277344 213.925781 25.886719 214.457031 26.496094 214.382812 C 26.953125 214.304688 27.332031 214 27.484375 213.542969 L 28.324219 205.089844 C 28.550781 203.1875 29.007812 197.398438 28.703125 195.496094 L 27.257812 188.566406 C 27.179688 188.414062 27.179688 188.261719 27.027344 188.183594 C 26.953125 188.109375 26.953125 188.03125 26.953125 187.878906 C 27.636719 183.386719 30.835938 179.425781 36.390625 149.800781 C 36.542969 148.964844 36.621094 148.125 36.695312 147.289062 L 37.304688 138.074219 C 39.664062 129.238281 40.578125 112.179688 40.804688 107.609375 C 41.261719 107.535156 41.71875 107.761719 41.796875 108.21875 L 43.015625 115.457031 L 43.015625 115.53125 C 43.015625 119.339844 43.015625 123.527344 43.773438 128.402344 C 44.078125 130.535156 43.316406 134.570312 42.40625 139.0625 C 42.023438 140.585938 41.566406 142.414062 41.109375 144.546875 C 36.390625 162.597656 36.925781 174.550781 36.542969 181.789062 C 36.542969 181.863281 36.542969 181.863281 36.542969 181.941406 C 36.542969 182.015625 36.542969 182.09375 36.542969 182.09375 L 36.542969 183.386719 C 36.390625 188.335938 36.773438 190.621094 36.773438 190.773438 C 36.925781 195.34375 37.304688 200.597656 38.066406 206.460938 C 39.359375 219.257812 41.644531 239.132812 44.992188 254.746094 C 45.753906 258.402344 45.753906 262.207031 45.070312 265.941406 C 43.851562 272.109375 42.40625 282.3125 43.925781 290.082031 C 46.132812 301.199219 53.519531 335.167969 54.582031 339.734375 C 54.582031 339.8125 54.582031 339.964844 54.507812 340.039062 C 54.203125 340.421875 53.898438 340.800781 53.519531 341.105469 C 52.757812 341.945312 51.765625 343.46875 51.386719 346.210938 C 51.007812 348.796875 45.222656 357.175781 46.285156 358.851562 C 47.125 360.222656 56.03125 362.277344 61.28125 362.964844 C 62.5 363.117188 61.585938 364.335938 65.390625 363.953125 C 66.6875 363.800781 66.609375 363.648438 66.839844 360.753906 C 66.839844 360.222656 67.523438 359.230469 67.523438 358.621094 C 67.597656 355.195312 67.371094 349.558594 66.992188 340.191406 L 65.773438 311.40625 C 65.773438 311.328125 67.828125 294.195312 66.992188 290.460938 C 66.152344 286.730469 68.285156 265.558594 68.285156 265.484375 L 68.285156 246.0625 C 68.285156 245.605469 70.113281 215.980469 71.328125 208.214844 C 72.546875 215.980469 74.375 245.605469 74.375 246.0625 L 74.375 265.484375 C 74.375 265.558594 76.503906 286.730469 75.667969 290.460938 C 74.832031 294.195312 76.886719 311.328125 76.886719 311.40625 L 75.667969 340.191406 C 75.289062 349.558594 75.058594 355.195312 75.136719 358.621094 C 75.136719 359.230469 75.820312 360.222656 75.820312 360.753906 C 76.046875 363.648438 75.972656 363.800781 77.265625 363.953125 C 81.070312 364.335938 80.160156 363.117188 81.375 362.964844 C 86.628906 362.277344 95.535156 360.222656 96.371094 358.851562 C 97.4375 357.175781 91.652344 348.796875 91.273438 346.210938 C 90.890625 343.46875 89.902344 341.945312 89.140625 341.105469 C 88.835938 340.800781 88.457031 340.34375 88.152344 340.039062 C 88.074219 339.964844 88.074219 339.886719 88.074219 339.734375 C 89.066406 335.167969 96.523438 301.199219 98.730469 290.082031 C 100.253906 282.3125 98.808594 272.109375 97.589844 265.941406 C 96.90625 262.207031 96.90625 258.402344 97.664062 254.746094 C 101.015625 239.132812 103.296875 219.257812 104.59375 206.460938 C 105.355469 200.597656 105.734375 195.34375 105.886719 190.773438 C 105.886719 190.621094 106.265625 188.335938 106.113281 183.386719 L 106.113281 182.09375 C 106.113281 182.09375 106.113281 182.015625 106.113281 181.941406 C 106.113281 181.863281 106.113281 181.863281 106.113281 181.789062 C 105.734375 174.550781 106.265625 162.597656 101.546875 144.546875 C 101.089844 142.414062 100.632812 140.585938 100.253906 139.0625 C 99.339844 134.570312 98.578125 130.535156 98.882812 128.402344 C 99.644531 123.527344 99.644531 119.339844 99.644531 115.53125 L 99.644531 115.457031 L 100.863281 108.21875 C 100.9375 107.761719 101.394531 107.535156 101.851562 107.609375 C 102.082031 112.179688 102.992188 129.238281 105.355469 138.074219 L 105.960938 147.289062 C 106.039062 148.125 106.113281 148.964844 106.265625 149.800781 C 111.824219 179.425781 115.019531 183.3125 115.707031 187.878906 C 115.707031 187.957031 115.707031 188.109375 115.628906 188.183594 C 115.554688 188.261719 115.476562 188.414062 115.402344 188.566406 L 113.953125 195.496094 C 113.648438 197.398438 114.105469 203.1875 114.335938 205.089844 L 115.171875 213.542969 C 115.324219 214 115.707031 214.304688 116.164062 214.382812 C 116.769531 214.457031 117.378906 213.925781 117.457031 213.316406 L 118.292969 207.605469 C 118.371094 207.222656 118.675781 206.917969 119.054688 206.917969 C 119.433594 206.917969 119.816406 207.300781 119.816406 207.679688 L 120.5 218.265625 C 120.578125 219.027344 121.492188 219.789062 122.402344 219.027344 C 122.9375 218.648438 123.242188 217.960938 123.242188 217.351562 L 123.242188 207.453125 C 123.242188 207.148438 123.316406 206.917969 123.46875 206.691406 L 124.078125 206.460938 C 124.457031 206.539062 124.457031 206.539062 124.609375 206.917969 L 129.101562 218.953125 C 129.332031 219.484375 129.9375 219.789062 130.472656 219.636719 L 130.929688 219.484375 C 131.613281 219.332031 131.996094 218.648438 131.765625 217.960938 L 128.339844 206.460938 C 128.1875 206.15625 128.339844 205.851562 128.570312 205.625 L 128.722656 205.546875 C 129.101562 205.320312 129.558594 205.320312 129.863281 205.699219 L 134.734375 213.773438 C 135.117188 214.152344 135.722656 214.304688 136.179688 214.078125 L 137.019531 213.695312 C 137.628906 213.390625 137.855469 212.628906 137.476562 212.023438 L 133.289062 203.71875 C 133.210938 203.566406 132.222656 200.828125 132.148438 200.597656 L 131.996094 200.140625 L 131.84375 199.609375 C 134.203125 201.589844 136.105469 200.980469 136.867188 201.207031 C 137.929688 201.511719 140.898438 201.664062 141.507812 199.914062 C 142.117188 198.160156 140.367188 199 137.78125 197.476562 Z M 137.78125 197.476562 " fill-opacity="1" fill-rule="nonzero"/></g></g></g></g></g><path stroke-linecap="butt" transform="matrix(0.747442, -0.0231692, 0.0232169, 0.748983, 17.501536, 45.062792)" fill="none" stroke-linejoin="miter" d="M -0.00178863 1.000913 L 136.808681 0.99812 " stroke="#00aea0" stroke-width="2" stroke-opacity="1" stroke-miterlimit="4"/><path stroke-linecap="round" transform="matrix(0.747442, -0.0231692, 0.0232169, 0.748983, 17.501536, 45.062792)" fill-opacity="1" fill="#00aea0" fill-rule="nonzero" stroke-linejoin="round" d="M 143.309932 1.001046 C 143.310838 2.654358 141.967723 4.000108 140.311003 4.001013 C 138.654283 4.001917 137.311141 2.656517 137.310396 0.997994 C 137.30949 -0.655318 138.652605 -2.001068 140.309325 -2.001973 C 141.965884 -1.997667 143.309187 -0.657477 143.309932 1.001046 " stroke="#00aea0" stroke-width="2" stroke-opacity="1" stroke-miterlimit="4"/><g clip-path="url(#33cf179641)"><path stroke-linecap="butt" transform="matrix(0.747221, 0.0204984, -0.0205489, 0.749061, 0.246562, 139.947219)" fill="none" stroke-linejoin="miter" d="M 0.000698946 0.99869 L 157.908759 1.00058 " stroke="#00aea0" stroke-width="2" stroke-opacity="1" stroke-miterlimit="4"/></g><path stroke-linecap="round" transform="matrix(0.747221, 0.0204984, -0.0205489, 0.749061, 0.246562, 139.947219)" fill-opacity="1" fill="#00aea0" fill-rule="nonzero" stroke-linejoin="round" d="M 164.40678 1.000064 C 164.41056 2.658287 163.06731 3.998762 161.410228 4.00239 C 159.753002 4.000807 158.409084 2.655645 158.410671 1.00249 C 158.406891 -0.655733 159.749997 -2.001419 161.407223 -1.999836 C 163.064448 -1.998253 164.408223 -0.658302 164.40678 1.000064 " stroke="#00aea0" stroke-width="2" stroke-opacity="1" stroke-miterlimit="4"/><g clip-path="url(#362f89dadd)"><path stroke-linecap="butt" transform="matrix(-0.750075, -0.0529752, 0.052792, -0.747481, 231.033127, 102.147809)" fill="none" stroke-linejoin="miter" d="M 0.000152712 1.002519 L 123.060406 0.997816 " stroke="#00aea0" stroke-width="2" stroke-opacity="1" stroke-miterlimit="4"/></g><path stroke-linecap="round" transform="matrix(-0.750075, -0.0529752, 0.052792, -0.747481, 231.033127, 102.147809)" fill-opacity="1" fill="#00aea0" fill-rule="nonzero" stroke-linejoin="round" d="M 129.560069 1.002278 C 129.562082 2.658741 128.218965 3.997692 126.563049 4.00008 C 124.907133 4.002468 123.56245 2.655423 123.560436 0.998959 C 123.563604 -0.657872 124.906356 -2.002022 126.562638 -1.99921 C 128.218554 -2.001598 129.563237 -0.654553 129.560069 1.002278 " stroke="#00aea0" stroke-width="2" stroke-opacity="1" stroke-miterlimit="4"/><path stroke-linecap="butt" transform="matrix(0.554556, -0.503248, 0.503572, 0.554914, 14.204812, 265.774159)" fill="none" stroke-linejoin="miter" d="M -0.000487677 0.99785 L 186.633229 0.999964 " stroke="#00aea0" stroke-width="2" stroke-opacity="1" stroke-miterlimit="4"/><path stroke-linecap="round" transform="matrix(0.554556, -0.503248, 0.503572, 0.554914, 14.204812, 265.774159)" fill-opacity="1" fill="#00aea0" fill-rule="nonzero" stroke-linejoin="round" d="M 193.136158 0.99843 C 193.135521 2.659146 191.790016 4.00125 190.135597 4.000257 C 188.477674 4.003123 187.134705 2.658484 187.135342 0.997767 C 187.136337 -0.655586 188.47798 -2.001193 190.132398 -2.000199 C 191.794184 -1.999562 193.13329 -0.658426 193.136158 0.99843 " stroke="#00aea0" stroke-width="2" stroke-opacity="1" stroke-miterlimit="4"/><g clip-path="url(#941d649de4)"><path stroke-linecap="butt" transform="matrix(-0.538046, -0.521955, 0.521762, -0.537847, 222.841537, 213.473323)" fill="none" stroke-linejoin="miter" d="M 0.00176493 1.001786 L 203.43253 0.998099 " stroke="#00aea0" stroke-width="2" stroke-opacity="1" stroke-miterlimit="4"/></g><path stroke-linecap="round" transform="matrix(-0.538046, -0.521955, 0.521762, -0.537847, 222.841537, 213.473323)" fill-opacity="1" fill="#00aea0" fill-rule="nonzero" stroke-linejoin="round" d="M 209.933071 1.000967 C 209.933749 2.656217 208.586711 3.999768 206.932073 4.000446 C 205.277436 4.001124 203.930643 2.657217 203.933705 0.998337 C 203.933027 -0.656914 205.272697 -2.000576 206.930962 -1.997512 C 208.58934 -2.00182 209.932393 -0.654284 209.933071 1.000967 " stroke="#00aea0" stroke-width="2" stroke-opacity="1" stroke-miterlimit="4"/><path stroke-linecap="butt" transform="matrix(-0.232198, -0.711139, 0.712332, -0.232588, 221.555444, 305.262924)" fill="none" stroke-linejoin="miter" d="M -0.00188877 1.001848 L 234.905137 0.999039 " stroke="#00aea0" stroke-width="2" stroke-opacity="1" stroke-miterlimit="4"/><path stroke-linecap="round" transform="matrix(-0.232198, -0.711139, 0.712332, -0.232588, 221.555444, 305.262924)" fill-opacity="1" fill="#00aea0" fill-rule="nonzero" stroke-linejoin="round" d="M 241.407829 1.001984 C 241.404813 2.657092 240.064016 4.002253 238.406129 3.999241 C 236.746622 4.001186 235.405788 2.659298 235.405461 0.997616 C 235.408477 -0.657492 236.749274 -2.002652 238.407161 -1.999641 C 240.061705 -2.003203 241.405882 -0.654742 241.407829 1.001984 " stroke="#00aea0" stroke-width="2" stroke-opacity="1" stroke-miterlimit="4"/><g clip-path="url(#f92670cb7d)"><path stroke-linecap="butt" transform="matrix(-0.747039, 0.00226798, -0.00227496, -0.749339, 227.395364, 18.224448)" fill="none" stroke-linejoin="miter" d="M -0.00192494 0.998054 L 129.932979 1.00035 " stroke="#00aea0" stroke-width="2" stroke-opacity="1" stroke-miterlimit="4"/></g><path stroke-linecap="round" transform="matrix(-0.747039, 0.00226798, -0.00227496, -0.749339, 227.395364, 18.224448)" fill-opacity="1" fill="#00aea0" fill-rule="nonzero" stroke-linejoin="round" d="M 136.432604 0.999171 C 136.432785 2.656882 135.090083 3.997753 133.432495 3.997949 C 131.774908 3.998145 130.429924 2.654352 130.429727 1.001854 C 130.429547 -0.655857 131.777493 -2.001926 133.429852 -2.002137 C 135.087439 -2.002333 136.432423 -0.658541 136.432604 0.999171 " stroke="#00aea0" stroke-width="2" stroke-opacity="1" stroke-miterlimit="4"/></svg>