<svg xmlns="http://www.w3.org/2000/svg" xmlns:xlink="http://www.w3.org/1999/xlink" width="287" zoomAndPan="magnify" viewBox="0 0 215.25 221.999995" height="296" preserveAspectRatio="xMidYMid meet" version="1.0"><defs><filter x="0%" y="0%" width="100%" height="100%" id="75d4e6de99"><feColorMatrix values="0 0 0 0 1 0 0 0 0 1 0 0 0 0 1 0 0 0 1 0" color-interpolation-filters="sRGB"/></filter><clipPath id="721daa1c68"><path d="M 62 170 L 163 170 L 163 221.613281 L 62 221.613281 Z M 62 170 " clip-rule="nonzero"/></clipPath><mask id="cd6dcdb333"><g filter="url(#75d4e6de99)"><rect x="-21.525" width="258.3" fill="#000000" y="-22.2" height="266.399994" fill-opacity="0.43"/></g></mask><clipPath id="062929499c"><path d="M 0.257812 0.21875 L 100.109375 0.21875 L 100.109375 51.058594 L 0.257812 51.058594 Z M 0.257812 0.21875 " clip-rule="nonzero"/></clipPath><clipPath id="5cd57b5d0d"><path d="M 50.183594 0.21875 C 22.609375 0.21875 0.257812 11.601562 0.257812 25.640625 C 0.257812 39.679688 22.609375 51.058594 50.183594 51.058594 C 77.757812 51.058594 100.109375 39.679688 100.109375 25.640625 C 100.109375 11.601562 77.757812 0.21875 50.183594 0.21875 Z M 50.183594 0.21875 " clip-rule="nonzero"/></clipPath><clipPath id="e9748a528a"><rect x="0" width="101" y="0" height="52"/></clipPath><clipPath id="454781a34a"><path d="M 8 41 L 176 41 L 176 197.800781 L 8 197.800781 Z M 8 41 " clip-rule="nonzero"/></clipPath><clipPath id="e076608768"><path d="M 0 0.386719 L 118 0.386719 L 118 120 L 0 120 Z M 0 0.386719 " clip-rule="nonzero"/></clipPath><clipPath id="0c41261ac4"><path d="M 134 6 L 214.503906 6 L 214.503906 81 L 134 81 Z M 134 6 " clip-rule="nonzero"/></clipPath><clipPath id="907da23dd9"><path d="M 103 135 L 214.503906 135 L 214.503906 216 L 103 216 Z M 103 135 " clip-rule="nonzero"/></clipPath></defs><g clip-path="url(#721daa1c68)"><g mask="url(#cd6dcdb333)"><g transform="matrix(1, 0, 0, 1, 62, 170)"><g clip-path="url(#e9748a528a)"><g clip-path="url(#062929499c)"><g clip-path="url(#5cd57b5d0d)"><path fill="#dfe9ed" d="M 0.257812 0.21875 L 100.109375 0.21875 L 100.109375 51.058594 L 0.257812 51.058594 Z M 0.257812 0.21875 " fill-opacity="1" fill-rule="nonzero"/></g></g></g></g></g></g><g clip-path="url(#454781a34a)"><path fill="#cfcfcf" d="M 138.496094 130.695312 C 135.953125 133.105469 133.25 136.863281 132.53125 137.996094 C 130.183594 141.703125 129.691406 145.894531 127.910156 149.761719 C 127.90625 151.234375 127.859375 152.714844 127.710938 154.160156 C 127.445312 156.828125 126.417969 159.574219 125.722656 162.222656 C 124.34375 167.480469 121.601562 172.984375 119.367188 177.945312 C 118.519531 179.832031 116.992188 181.226562 115.917969 182.875 C 116.3125 184.363281 117.046875 185.917969 117.421875 186.589844 C 118.808594 189.03125 121.355469 189.3125 123.921875 189.59375 C 126.859375 189.917969 129.769531 189.992188 132.765625 189.992188 C 134.707031 189.992188 139.730469 188.871094 141.121094 190.300781 C 141.261719 190.449219 141.371094 190.621094 141.445312 190.808594 C 142.050781 190.753906 142.652344 190.699219 143.234375 190.710938 C 145.296875 190.730469 146.113281 191.761719 147.925781 192.324219 C 149.191406 192.722656 151.839844 193.046875 150.496094 195.050781 C 149.644531 196.335938 148.007812 195.785156 146.835938 195.496094 C 146.402344 196.207031 145.109375 196.628906 144.097656 196.304688 C 142.566406 195.824219 141.863281 194.773438 140.566406 194.398438 C 141.363281 195.644531 139.4375 196.488281 137.277344 195.914062 C 135.703125 195.496094 134.5625 194.816406 133.210938 194.417969 C 133.332031 195.4375 132.476562 196.238281 130.820312 195.863281 C 128.882812 195.417969 127.089844 195.039062 125.003906 194.832031 C 122.246094 194.558594 118.964844 194.949219 116.339844 194.117188 C 115.25 193.773438 114.277344 193.066406 113.234375 192.554688 C 111.855469 191.867188 110.695312 191.90625 109.304688 191.429688 C 106.269531 190.402344 106.6875 187.3125 107.304688 184.617188 C 107.578125 183.449219 108.902344 180.121094 108.460938 178.21875 C 107.820312 178.675781 107.140625 179.089844 106.375 179.382812 C 104.863281 179.953125 102.941406 180.054688 101.371094 180.5 C 99.601562 181.007812 97.996094 181.46875 96.125 181.75 C 94.773438 181.945312 93.242188 181.917969 91.871094 182.0625 C 91.496094 184.359375 92.90625 187.871094 93.917969 189.148438 C 95.101562 190.640625 96.480469 191.046875 98.292969 191.066406 C 99.820312 191.089844 101.605469 190.929688 101.875 192.507812 C 102.863281 192.726562 103.820312 193.066406 104.789062 193.257812 C 105.945312 193.480469 107.917969 193.582031 108.8125 194.421875 C 110.089844 195.625 109.628906 197.488281 107.667969 197.160156 C 107.007812 197.046875 106.132812 196.65625 105.324219 196.292969 C 104.945312 197.203125 103.664062 197.828125 102.300781 197.296875 C 101.238281 196.882812 100.371094 195.800781 99.378906 195.09375 C 99.5 195.535156 99.480469 195.984375 99.160156 196.410156 C 98.359375 197.453125 97.136719 196.929688 96.261719 196.488281 C 95.445312 196.074219 94.820312 195.304688 93.78125 194.964844 C 93.097656 194.738281 92.234375 194.613281 91.488281 194.433594 C 90.269531 195.257812 89.203125 196.183594 87.460938 196.085938 C 85.011719 195.941406 84.089844 193.273438 86.894531 193.011719 C 87.21875 190.445312 84.578125 190.207031 83.449219 188.601562 C 82.246094 186.898438 83.503906 185.828125 84.332031 184.558594 C 79.996094 184.179688 76.988281 181.824219 73.503906 179.15625 C 71.667969 179.101562 69.957031 179.421875 69.957031 179.421875 C 48.65625 186.050781 33.132812 183.722656 33.132812 183.722656 C 20.320312 182.109375 15.625 174.402344 15.625 174.402344 C 14.542969 172.613281 9.671875 168.671875 9.671875 168.671875 C 7.683594 167.417969 8.585938 166.523438 8.585938 166.523438 C 13.460938 166.699219 20.136719 172.613281 20.136719 172.613281 C 37.648438 181.394531 69.230469 171.359375 69.230469 171.359375 C 68.328125 167.238281 68.148438 154.519531 68.148438 154.519531 C 66.164062 128.003906 85.117188 107.578125 85.117188 107.578125 C 94.320312 97.1875 117.246094 81.601562 117.246094 81.601562 C 121.371094 76.992188 121.535156 68.265625 121.289062 63.664062 C 120.914062 63.203125 120.515625 62.753906 120.085938 62.296875 C 118.484375 60.589844 115.945312 59.65625 114.578125 57.90625 C 112.683594 55.464844 113.859375 52.429688 115.96875 50.566406 C 118.417969 48.40625 121.132812 47.929688 124.101562 49.394531 C 126.539062 50.597656 128.734375 52.570312 130.289062 54.914062 C 132.800781 51.855469 137.054688 49.238281 139.980469 47.523438 C 142.382812 46.117188 145.035156 45.230469 147.75 44.832031 C 150.640625 44.40625 153.550781 44.90625 156.410156 44.332031 C 160.632812 43.480469 164.253906 41.316406 168.6875 41.109375 C 170.773438 41.007812 172.863281 40.863281 174.058594 42.765625 C 174.882812 44.097656 175.070312 45.664062 174.6875 47.109375 C 175.707031 49.726562 176.601562 52.847656 175.3125 55.402344 C 174.226562 57.566406 172.261719 59.550781 170.011719 60.902344 C 170.964844 64.21875 166.582031 68.828125 164.84375 71.210938 C 162.417969 74.546875 159.402344 77.164062 156.316406 79.785156 C 156.046875 80.804688 155.847656 81.777344 155.6875 82.492188 C 155.054688 85.328125 154.511719 88.019531 154.074219 90.917969 C 153.214844 96.660156 152.671875 102.566406 152.078125 108.476562 C 151.832031 110.925781 151.890625 113.390625 152.40625 115.761719 C 153.296875 116.914062 154.101562 118.207031 155.101562 119.265625 C 156.738281 121.007812 158.558594 122.402344 160.199219 124.0625 C 162.015625 125.90625 164.878906 127.011719 166.296875 129.078125 C 167.46875 130.808594 168.90625 133.183594 169.40625 135.167969 C 169.6875 136.285156 170.882812 138.8125 169.726562 139.609375 C 168.5 140.449219 167.644531 139.007812 167.109375 137.789062 C 166.640625 138.671875 165.710938 138.875 164.714844 137.859375 C 164.035156 137.164062 163.691406 135.929688 163.613281 134.824219 C 163.296875 134.570312 163 134.246094 162.769531 133.90625 C 161.855469 134.472656 160.679688 132.957031 160.191406 131.496094 C 159.460938 131.660156 158.726562 131.902344 158.210938 132.332031 C 158.367188 132.492188 158.507812 132.648438 158.621094 132.796875 C 159.398438 133.820312 160.113281 135 160.878906 136.101562 C 161.703125 137.289062 162.226562 138.617188 162.859375 139.867188 C 163.148438 140.441406 163.894531 141.027344 163.5 141.667969 C 163.171875 142.191406 162.4375 142.261719 161.863281 142.035156 C 161.875 142.144531 161.871094 142.242188 161.839844 142.339844 C 161.347656 144.007812 159.179688 143.15625 158.527344 142.199219 C 157.816406 141.15625 158.199219 139.796875 157.542969 138.703125 C 156.976562 137.769531 155.949219 137.234375 155.269531 136.441406 C 155.832031 138.601562 157.613281 142.847656 154.960938 141.804688 C 153.820312 141.359375 153.933594 139.410156 153.53125 138.570312 C 153.003906 137.476562 152.222656 136.820312 151.226562 136.195312 C 150.839844 135.949219 150.378906 135.4375 149.921875 135.34375 C 149.238281 135.191406 148.695312 136.003906 147.921875 135.710938 C 146.964844 135.363281 146.566406 133.882812 145.722656 133.238281 C 143.855469 131.816406 140.839844 130.785156 138.496094 130.695312 Z M 138.496094 130.695312 " fill-opacity="1" fill-rule="nonzero"/></g><path stroke-linecap="butt" transform="matrix(0.736251, -0.109585, 0.110032, 0.739252, 0.235197, 184.293844)" fill="none" stroke-linejoin="miter" d="M -0.00160032 0.997265 L 107.977706 0.998481 " stroke="#00aea0" stroke-width="2" stroke-opacity="1" stroke-miterlimit="4"/><path stroke-linecap="round" transform="matrix(0.736251, -0.109585, 0.110032, 0.739252, 0.235197, 184.293844)" fill-opacity="1" fill="#00aea0" fill-rule="nonzero" stroke-linejoin="round" d="M 114.481995 1.000964 C 114.478945 2.654422 113.137372 3.998495 111.481592 4.001397 C 109.821395 3.998359 108.477807 2.657832 108.481629 0.999204 C 108.479488 -0.655023 109.821062 -1.999096 111.482032 -2.001228 C 113.137039 -1.99896 114.480627 -0.658433 114.481995 1.000964 " stroke="#00aea0" stroke-width="2" stroke-opacity="1" stroke-miterlimit="4"/><g clip-path="url(#e076608768)"><path stroke-linecap="butt" transform="matrix(0.505924, 0.551279, -0.550655, 0.505351, 8.946059, 0.910509)" fill="none" stroke-linejoin="miter" d="M -0.00255895 0.999234 L 199.270362 1.000058 " stroke="#00aea0" stroke-width="2" stroke-opacity="1" stroke-miterlimit="4"/></g><path stroke-linecap="round" transform="matrix(0.505924, 0.551279, -0.550655, 0.505351, 8.946059, 0.910509)" fill-opacity="1" fill="#00aea0" fill-rule="nonzero" stroke-linejoin="round" d="M 205.773449 1.001878 C 205.774102 2.655338 204.427685 4.000447 202.77225 3.997567 C 201.117132 4.002072 199.770016 2.657979 199.772893 1.000668 C 199.771923 -0.660177 201.11481 -2.001435 202.770245 -1.998555 C 204.42921 -1.999526 205.772479 -0.658968 205.773449 1.001878 " stroke="#00aea0" stroke-width="2" stroke-opacity="1" stroke-miterlimit="4"/><path stroke-linecap="butt" transform="matrix(0.704911, 0.255648, -0.254816, 0.702616, 8.650989, 88.532304)" fill="none" stroke-linejoin="miter" d="M -0.00230616 1.000063 L 136.035323 0.999505 " stroke="#00aea0" stroke-width="2" stroke-opacity="1" stroke-miterlimit="4"/><path stroke-linecap="round" transform="matrix(0.704911, 0.255648, -0.254816, 0.702616, 8.650989, 88.532304)" fill-opacity="1" fill="#00aea0" fill-rule="nonzero" stroke-linejoin="round" d="M 142.534755 0.997498 C 142.535122 2.654119 141.192518 3.998803 139.536392 4.000952 C 137.878489 3.998188 136.535062 2.657895 136.534695 1.001273 C 136.534329 -0.655348 137.876933 -2.000032 139.533059 -2.002181 C 141.190961 -1.999417 142.534389 -0.659124 142.534755 0.997498 " stroke="#00aea0" stroke-width="2" stroke-opacity="1" stroke-miterlimit="4"/><g clip-path="url(#0c41261ac4)"><path stroke-linecap="butt" transform="matrix(-0.577838, 0.473601, -0.473774, -0.578048, 214.086768, 15.328404)" fill="none" stroke-linejoin="miter" d="M -0.000598715 1.000125 L 121.555023 0.997709 " stroke="#00aea0" stroke-width="2" stroke-opacity="1" stroke-miterlimit="4"/></g><path stroke-linecap="round" transform="matrix(-0.577838, 0.473601, -0.473774, -0.578048, 214.086768, 15.328404)" fill-opacity="1" fill="#00aea0" fill-rule="nonzero" stroke-linejoin="round" d="M 128.056715 0.999587 C 128.057506 2.655862 126.712168 3.999884 125.055292 4.000674 C 123.398415 4.001465 122.053905 2.656616 122.053114 1.000341 C 122.055637 -0.659976 123.397661 -1.999956 125.054537 -2.000746 C 126.711414 -2.001537 128.055924 -0.656688 128.056715 0.999587 " stroke="#00aea0" stroke-width="2" stroke-opacity="1" stroke-miterlimit="4"/><path stroke-linecap="butt" transform="matrix(-0.650215, 0.367881, -0.36804, -0.650497, 200.974542, 75.785687)" fill="none" stroke-linejoin="miter" d="M 0.00221117 0.998901 L 100.550556 1.00123 " stroke="#00aea0" stroke-width="2" stroke-opacity="1" stroke-miterlimit="4"/><path stroke-linecap="round" transform="matrix(-0.650215, 0.367881, -0.36804, -0.650497, 200.974542, 75.785687)" fill-opacity="1" fill="#00aea0" fill-rule="nonzero" stroke-linejoin="round" d="M 107.052927 0.997488 C 107.052216 2.654472 105.707031 4.001481 104.049327 4.00077 C 102.396175 4.002634 101.055707 2.656057 101.049292 1.001048 C 101.050002 -0.655936 102.395188 -2.002945 104.052891 -2.002235 C 105.710594 -2.001525 107.051063 -0.654947 107.052927 0.997488 " stroke="#00aea0" stroke-width="2" stroke-opacity="1" stroke-miterlimit="4"/><g clip-path="url(#907da23dd9)"><path stroke-linecap="butt" transform="matrix(-0.629298, -0.404142, 0.403872, -0.628878, 209.708985, 207.781048)" fill="none" stroke-linejoin="miter" d="M -0.000602383 1.000111 L 156.398522 0.999461 " stroke="#00aea0" stroke-width="2" stroke-opacity="1" stroke-miterlimit="4"/></g><path stroke-linecap="round" transform="matrix(-0.629298, -0.404142, 0.403872, -0.628878, 209.708985, 207.781048)" fill-opacity="1" fill="#00aea0" fill-rule="nonzero" stroke-linejoin="round" d="M 162.903685 0.999298 C 162.901357 2.659253 161.558538 4.000484 159.89969 3.998155 C 158.243664 4.000223 156.903328 2.656508 156.901261 0.999377 C 156.899193 -0.657754 158.246407 -2.001809 159.90086 -1.996656 C 161.556886 -1.998724 162.901617 -0.657833 162.903685 0.999298 " stroke="#00aea0" stroke-width="2" stroke-opacity="1" stroke-miterlimit="4"/></svg>