<svg xmlns="http://www.w3.org/2000/svg" xmlns:xlink="http://www.w3.org/1999/xlink" width="196" zoomAndPan="magnify" viewBox="0 0 147 386.250002" height="515" preserveAspectRatio="xMidYMid meet" version="1.0"><defs><filter x="0%" y="0%" width="100%" height="100%" id="5de1c2737f"><feColorMatrix values="0 0 0 0 1 0 0 0 0 1 0 0 0 0 1 0 0 0 1 0" color-interpolation-filters="sRGB"/></filter><clipPath id="f56a8466e2"><path d="M 23 334 L 124 334 L 124 385.5 L 23 385.5 Z M 23 334 " clip-rule="nonzero"/></clipPath><mask id="c4f23eab68"><g filter="url(#5de1c2737f)"><rect x="-14.7" width="176.4" fill="#000000" y="-38.625" height="463.500002" fill-opacity="0.43"/></g></mask><clipPath id="db9161a6f4"><path d="M 0.421875 0.164062 L 100.425781 0.164062 L 100.425781 51.082031 L 0.421875 51.082031 Z M 0.421875 0.164062 " clip-rule="nonzero"/></clipPath><clipPath id="29d11514ad"><path d="M 50.425781 0.164062 C 22.808594 0.164062 0.421875 11.5625 0.421875 25.625 C 0.421875 39.683594 22.808594 51.082031 50.425781 51.082031 C 78.039062 51.082031 100.425781 39.683594 100.425781 25.625 C 100.425781 11.5625 78.039062 0.164062 50.425781 0.164062 Z M 50.425781 0.164062 " clip-rule="nonzero"/></clipPath><clipPath id="559cce3c68"><rect x="0" width="101" y="0" height="52"/></clipPath><clipPath id="f1b82a85e8"><path d="M 0.375 0.34375 L 146 0.34375 L 146 376 L 0.375 376 Z M 0.375 0.34375 " clip-rule="nonzero"/></clipPath><clipPath id="eae24d1886"><path d="M 0.375 0.34375 L 146.34375 0.34375 L 146.34375 376.113281 L 0.375 376.113281 Z M 0.375 0.34375 " clip-rule="nonzero"/></clipPath><mask id="177bed1205"><g filter="url(#5de1c2737f)"><rect x="-14.7" width="176.4" fill="#000000" y="-38.625" height="463.500002" fill-opacity="0.8"/></g></mask><clipPath id="8cd2436d3e"><path d="M 0.621094 0.34375 L 146 0.34375 L 146 376 L 0.621094 376 Z M 0.621094 0.34375 " clip-rule="nonzero"/></clipPath><clipPath id="0fc7839493"><rect x="0" width="147" y="0" height="377"/></clipPath></defs><g clip-path="url(#f56a8466e2)"><g mask="url(#c4f23eab68)"><g transform="matrix(1, 0, 0, 1, 23, 334)"><g clip-path="url(#559cce3c68)"><g clip-path="url(#db9161a6f4)"><g clip-path="url(#29d11514ad)"><path fill="#dfe9ed" d="M 0.421875 0.164062 L 100.425781 0.164062 L 100.425781 51.082031 L 0.421875 51.082031 Z M 0.421875 0.164062 " fill-opacity="1" fill-rule="nonzero"/></g></g></g></g></g></g><g clip-path="url(#f1b82a85e8)"><path fill="#c7c8c8" d="M 141.769531 203.945312 C 140.042969 202.921875 138.945312 201.113281 138.394531 199.859375 C 138.003906 198.992188 137.375 198.285156 136.589844 197.816406 L 132.039062 195.0625 C 131.882812 194.984375 131.804688 194.828125 131.882812 194.671875 C 132.902344 187.128906 127.960938 139.742188 127.960938 137.152344 C 127.960938 136.523438 127.332031 132.277344 126.863281 129.292969 C 126.625 127.644531 126.546875 125.914062 126.863281 124.265625 C 128.507812 113.65625 125.292969 98.019531 123.960938 92.046875 L 123.960938 91.101562 C 131.414062 64.148438 113.289062 64.464844 112.507812 64.464844 L 112.425781 64.464844 C 108.269531 63.914062 104.269531 62.972656 100.347656 61.558594 C 94.621094 59.511719 89.832031 57.941406 86.304688 56.921875 C 84.265625 56.292969 82.851562 54.40625 82.851562 52.285156 L 82.851562 47.492188 C 82.851562 47.414062 82.851562 47.332031 82.929688 47.253906 C 85.910156 43.5625 87.871094 38.613281 89.128906 33.660156 C 89.207031 33.503906 89.285156 33.425781 89.519531 33.425781 C 91.246094 33.425781 93.519531 30.675781 93.835938 27.6875 C 94.148438 24.546875 93.050781 21.953125 91.324219 21.796875 C 91.246094 21.796875 91.246094 21.796875 91.167969 21.796875 C 91.246094 20.300781 91.324219 18.886719 91.324219 17.710938 C 91.089844 7.886719 83.246094 1.363281 73.28125 0.34375 C 63.238281 1.363281 55.472656 7.886719 55.394531 17.710938 C 55.394531 18.886719 55.472656 20.300781 55.550781 21.796875 C 55.472656 21.796875 55.472656 21.796875 55.394531 21.796875 C 53.667969 21.953125 52.570312 24.546875 52.882812 27.6875 C 53.277344 30.753906 55.550781 33.425781 57.199219 33.425781 C 57.355469 33.425781 57.511719 33.503906 57.589844 33.660156 C 58.847656 38.613281 60.808594 43.5625 63.789062 47.253906 C 63.867188 47.332031 63.867188 47.414062 63.867188 47.492188 L 63.867188 52.207031 C 63.867188 54.328125 62.453125 56.214844 60.414062 56.84375 C 56.886719 57.863281 52.097656 59.433594 46.371094 61.476562 C 42.449219 62.894531 38.449219 63.835938 34.292969 64.386719 L 34.214844 64.386719 C 33.429688 64.386719 15.304688 64.070312 22.757812 91.023438 L 22.757812 91.96875 C 21.347656 97.9375 18.210938 113.65625 19.855469 124.183594 C 20.09375 125.835938 20.09375 127.5625 19.855469 129.214844 C 19.386719 132.199219 18.757812 136.445312 18.757812 137.074219 C 18.757812 139.664062 13.816406 187.050781 14.835938 194.59375 C 14.835938 194.75 14.757812 194.90625 14.679688 194.984375 L 10.128906 197.734375 C 9.34375 198.207031 8.714844 198.914062 8.324219 199.777344 C 7.777344 201.035156 6.675781 202.84375 4.953125 203.867188 C 2.285156 205.4375 0.480469 204.574219 1.105469 206.378906 C 1.734375 208.1875 4.792969 208.03125 5.894531 207.714844 C 6.675781 207.480469 8.636719 208.109375 11.070312 206.066406 L 10.914062 206.617188 L 10.757812 207.085938 C 10.679688 207.324219 9.65625 210.152344 9.578125 210.308594 L 5.265625 218.875 C 4.714844 219.582031 4.953125 220.367188 5.578125 220.679688 L 6.441406 221.074219 C 6.914062 221.308594 7.539062 221.152344 7.933594 220.761719 L 12.953125 212.429688 C 13.265625 212.039062 13.738281 212.039062 14.128906 212.273438 L 14.285156 212.351562 C 14.523438 212.585938 14.679688 212.902344 14.523438 213.214844 L 10.992188 225.082031 C 10.757812 225.789062 11.148438 226.496094 11.855469 226.652344 L 12.324219 226.8125 C 12.875 226.96875 13.503906 226.652344 13.738281 226.105469 L 18.367188 213.6875 C 18.523438 213.296875 18.523438 213.296875 18.914062 213.214844 L 19.542969 213.453125 C 19.699219 213.6875 19.777344 213.921875 19.777344 214.238281 L 19.777344 224.453125 C 19.777344 225.160156 20.09375 225.789062 20.640625 226.183594 C 21.660156 226.890625 22.523438 226.183594 22.601562 225.394531 L 23.308594 214.472656 C 23.308594 214.082031 23.699219 213.6875 24.09375 213.6875 C 24.484375 213.6875 24.800781 214.003906 24.878906 214.394531 L 25.742188 220.289062 C 25.820312 220.917969 26.445312 221.46875 27.074219 221.390625 C 27.542969 221.308594 27.9375 220.996094 28.09375 220.523438 L 28.957031 211.800781 C 29.191406 209.835938 29.664062 203.867188 29.347656 201.902344 L 27.859375 194.75 C 27.78125 194.59375 27.78125 194.4375 27.625 194.355469 C 27.542969 194.277344 27.542969 194.199219 27.542969 194.042969 C 28.25 189.40625 31.546875 185.320312 37.273438 154.753906 C 37.429688 153.886719 37.507812 153.023438 37.585938 152.160156 L 38.214844 142.652344 C 40.644531 133.535156 41.585938 115.933594 41.824219 111.21875 C 42.292969 111.140625 42.765625 111.375 42.84375 111.847656 L 44.097656 119.3125 L 44.097656 119.390625 C 44.097656 123.320312 44.097656 127.644531 44.882812 132.671875 C 45.195312 134.871094 44.410156 139.035156 43.46875 143.671875 C 43.078125 145.246094 42.605469 147.128906 42.136719 149.332031 C 37.273438 167.953125 37.820312 180.292969 37.429688 187.757812 C 37.429688 187.835938 37.429688 187.835938 37.429688 187.914062 C 37.429688 187.992188 37.429688 188.070312 37.429688 188.070312 L 37.429688 189.40625 C 37.273438 194.515625 37.664062 196.871094 37.664062 197.027344 C 37.820312 201.742188 38.214844 207.164062 39 213.214844 C 40.332031 226.417969 42.6875 246.925781 46.136719 263.035156 C 46.921875 266.808594 46.921875 270.738281 46.214844 274.585938 C 44.960938 280.953125 43.46875 291.480469 45.039062 299.496094 C 47.3125 310.96875 54.921875 346.015625 56.023438 350.730469 C 56.023438 350.808594 56.023438 350.96875 55.945312 351.046875 C 55.628906 351.4375 55.316406 351.832031 54.921875 352.144531 C 54.140625 353.011719 53.121094 354.582031 52.726562 357.410156 C 52.335938 360.082031 46.371094 368.726562 47.472656 370.457031 C 48.332031 371.871094 57.511719 373.992188 62.925781 374.699219 C 64.179688 374.855469 63.238281 376.113281 67.160156 375.71875 C 68.496094 375.5625 68.417969 375.40625 68.652344 372.417969 C 68.652344 371.871094 69.359375 370.847656 69.359375 370.21875 C 69.4375 366.683594 69.203125 360.867188 68.808594 351.203125 L 67.554688 321.5 C 67.554688 321.421875 69.671875 303.742188 68.808594 299.890625 C 67.945312 296.039062 70.144531 274.195312 70.144531 274.117188 L 70.144531 254.078125 C 70.144531 253.605469 72.027344 223.039062 73.28125 215.023438 C 74.535156 223.039062 76.417969 253.605469 76.417969 254.078125 L 76.417969 274.117188 C 76.417969 274.195312 78.617188 296.039062 77.753906 299.890625 C 76.890625 303.742188 79.007812 321.421875 79.007812 321.5 L 77.753906 351.203125 C 77.359375 360.867188 77.125 366.683594 77.203125 370.21875 C 77.203125 370.847656 77.910156 371.871094 77.910156 372.417969 C 78.144531 375.40625 78.066406 375.5625 79.398438 375.71875 C 83.324219 376.113281 82.382812 374.855469 83.636719 374.699219 C 89.050781 373.992188 98.226562 371.871094 99.089844 370.457031 C 100.1875 368.726562 94.226562 360.082031 93.835938 357.410156 C 93.441406 354.582031 92.421875 353.011719 91.636719 352.144531 C 91.324219 351.832031 90.933594 351.359375 90.617188 351.046875 C 90.539062 350.96875 90.539062 350.890625 90.539062 350.730469 C 91.558594 346.015625 99.246094 310.96875 101.523438 299.496094 C 103.09375 291.480469 101.601562 280.953125 100.347656 274.585938 C 99.640625 270.738281 99.640625 266.808594 100.425781 263.035156 C 103.875 246.925781 106.230469 226.417969 107.5625 213.214844 C 108.347656 207.164062 108.742188 201.742188 108.898438 197.027344 C 108.898438 196.871094 109.289062 194.515625 109.132812 189.40625 L 109.132812 188.070312 C 109.132812 188.070312 109.132812 187.992188 109.132812 187.914062 C 109.132812 187.835938 109.132812 187.835938 109.132812 187.757812 C 108.742188 180.292969 109.289062 167.953125 104.425781 149.332031 C 103.953125 147.128906 103.484375 145.246094 103.09375 143.671875 C 102.152344 139.035156 101.367188 134.871094 101.679688 132.671875 C 102.464844 127.644531 102.464844 123.320312 102.464844 119.390625 L 102.464844 119.3125 L 103.71875 111.847656 C 103.796875 111.375 104.269531 111.140625 104.738281 111.21875 C 104.976562 115.933594 105.917969 133.535156 108.347656 142.652344 L 108.976562 152.160156 C 109.054688 153.023438 109.132812 153.886719 109.289062 154.753906 C 115.015625 185.320312 118.3125 189.328125 119.015625 194.042969 C 119.015625 194.121094 119.015625 194.277344 118.9375 194.355469 C 118.859375 194.4375 118.78125 194.59375 118.703125 194.75 L 117.214844 201.902344 C 116.898438 203.867188 117.371094 209.835938 117.605469 211.800781 L 118.46875 220.523438 C 118.625 220.996094 119.015625 221.308594 119.488281 221.390625 C 120.117188 221.46875 120.742188 220.917969 120.820312 220.289062 L 121.683594 214.394531 C 121.761719 214.003906 122.078125 213.6875 122.46875 213.6875 C 122.863281 213.6875 123.253906 214.082031 123.253906 214.472656 L 123.960938 225.394531 C 124.039062 226.183594 124.980469 226.96875 125.921875 226.183594 C 126.46875 225.789062 126.785156 225.082031 126.785156 224.453125 L 126.785156 214.238281 C 126.785156 213.921875 126.863281 213.6875 127.019531 213.453125 L 127.648438 213.214844 C 128.039062 213.296875 128.039062 213.296875 128.195312 213.6875 L 132.824219 226.105469 C 133.058594 226.652344 133.6875 226.96875 134.238281 226.8125 L 134.707031 226.652344 C 135.414062 226.496094 135.804688 225.789062 135.570312 225.082031 L 132.039062 213.214844 C 131.882812 212.902344 132.039062 212.585938 132.273438 212.351562 L 132.433594 212.273438 C 132.824219 212.039062 133.296875 212.039062 133.609375 212.429688 L 138.628906 220.761719 C 139.023438 221.152344 139.648438 221.308594 140.121094 221.074219 L 140.984375 220.679688 C 141.609375 220.367188 141.847656 219.582031 141.453125 218.953125 L 137.140625 210.386719 C 137.0625 210.230469 136.039062 207.402344 135.960938 207.164062 L 135.804688 206.695312 L 135.648438 206.144531 C 138.082031 208.1875 140.042969 207.558594 140.828125 207.792969 C 141.925781 208.109375 144.984375 208.265625 145.613281 206.457031 C 146.238281 204.652344 144.433594 205.515625 141.769531 203.945312 Z M 141.769531 203.945312 " fill-opacity="1" fill-rule="nonzero"/></g><g clip-path="url(#eae24d1886)"><g mask="url(#177bed1205)"><g transform="matrix(1, 0, 0, 1, 0, -0.000000000000003303)"><g clip-path="url(#0fc7839493)"><g clip-path="url(#8cd2436d3e)"><path fill="#c7c8c8" d="M 141.769531 203.945312 C 140.042969 202.921875 138.945312 201.113281 138.394531 199.859375 C 138.003906 198.992188 137.375 198.285156 136.589844 197.816406 L 132.039062 195.0625 C 131.882812 194.984375 131.804688 194.828125 131.882812 194.671875 C 132.902344 187.128906 127.960938 139.742188 127.960938 137.152344 C 127.960938 136.523438 127.332031 132.277344 126.863281 129.292969 C 126.625 127.644531 126.546875 125.914062 126.863281 124.265625 C 128.507812 113.65625 125.292969 98.019531 123.960938 92.046875 L 123.960938 91.101562 C 131.414062 64.148438 113.289062 64.464844 112.507812 64.464844 L 112.425781 64.464844 C 108.269531 63.914062 104.269531 62.972656 100.347656 61.558594 C 94.621094 59.511719 89.832031 57.941406 86.304688 56.921875 C 84.265625 56.292969 82.851562 54.40625 82.851562 52.285156 L 82.851562 47.492188 C 82.851562 47.414062 82.851562 47.332031 82.929688 47.253906 C 85.910156 43.5625 87.871094 38.613281 89.128906 33.660156 C 89.207031 33.503906 89.285156 33.425781 89.519531 33.425781 C 91.246094 33.425781 93.519531 30.675781 93.835938 27.6875 C 94.148438 24.546875 93.050781 21.953125 91.324219 21.796875 C 91.246094 21.796875 91.246094 21.796875 91.167969 21.796875 C 91.246094 20.300781 91.324219 18.886719 91.324219 17.710938 C 91.089844 7.886719 83.246094 1.363281 73.28125 0.34375 C 63.238281 1.363281 55.472656 7.886719 55.394531 17.710938 C 55.394531 18.886719 55.472656 20.300781 55.550781 21.796875 C 55.472656 21.796875 55.472656 21.796875 55.394531 21.796875 C 53.667969 21.953125 52.570312 24.546875 52.882812 27.6875 C 53.277344 30.753906 55.550781 33.425781 57.199219 33.425781 C 57.355469 33.425781 57.511719 33.503906 57.589844 33.660156 C 58.847656 38.613281 60.808594 43.5625 63.789062 47.253906 C 63.867188 47.332031 63.867188 47.414062 63.867188 47.492188 L 63.867188 52.207031 C 63.867188 54.328125 62.453125 56.214844 60.414062 56.84375 C 56.886719 57.863281 52.097656 59.433594 46.371094 61.476562 C 42.449219 62.894531 38.449219 63.835938 34.292969 64.386719 L 34.214844 64.386719 C 33.429688 64.386719 15.304688 64.070312 22.757812 91.023438 L 22.757812 91.96875 C 21.347656 97.9375 18.210938 113.65625 19.855469 124.183594 C 20.09375 125.835938 20.09375 127.5625 19.855469 129.214844 C 19.386719 132.199219 18.757812 136.445312 18.757812 137.074219 C 18.757812 139.664062 13.816406 187.050781 14.835938 194.59375 C 14.835938 194.75 14.757812 194.90625 14.679688 194.984375 L 10.128906 197.734375 C 9.34375 198.207031 8.714844 198.914062 8.324219 199.777344 C 7.777344 201.035156 6.675781 202.84375 4.953125 203.867188 C 2.285156 205.4375 0.480469 204.574219 1.105469 206.378906 C 1.734375 208.1875 4.792969 208.03125 5.894531 207.714844 C 6.675781 207.480469 8.636719 208.109375 11.070312 206.066406 L 10.914062 206.617188 L 10.757812 207.085938 C 10.679688 207.324219 9.65625 210.152344 9.578125 210.308594 L 5.265625 218.875 C 4.714844 219.582031 4.953125 220.367188 5.578125 220.679688 L 6.441406 221.074219 C 6.914062 221.308594 7.539062 221.152344 7.933594 220.761719 L 12.953125 212.429688 C 13.265625 212.039062 13.738281 212.039062 14.128906 212.273438 L 14.285156 212.351562 C 14.523438 212.585938 14.679688 212.902344 14.523438 213.214844 L 10.992188 225.082031 C 10.757812 225.789062 11.148438 226.496094 11.855469 226.652344 L 12.324219 226.8125 C 12.875 226.96875 13.503906 226.652344 13.738281 226.105469 L 18.367188 213.6875 C 18.523438 213.296875 18.523438 213.296875 18.914062 213.214844 L 19.542969 213.453125 C 19.699219 213.6875 19.777344 213.921875 19.777344 214.238281 L 19.777344 224.453125 C 19.777344 225.160156 20.09375 225.789062 20.640625 226.183594 C 21.660156 226.890625 22.523438 226.183594 22.601562 225.394531 L 23.308594 214.472656 C 23.308594 214.082031 23.699219 213.6875 24.09375 213.6875 C 24.484375 213.6875 24.800781 214.003906 24.878906 214.394531 L 25.742188 220.289062 C 25.820312 220.917969 26.445312 221.46875 27.074219 221.390625 C 27.542969 221.308594 27.9375 220.996094 28.09375 220.523438 L 28.957031 211.800781 C 29.191406 209.835938 29.664062 203.867188 29.347656 201.902344 L 27.859375 194.75 C 27.78125 194.59375 27.78125 194.4375 27.625 194.355469 C 27.542969 194.277344 27.542969 194.199219 27.542969 194.042969 C 28.25 189.40625 31.546875 185.320312 37.273438 154.753906 C 37.429688 153.886719 37.507812 153.023438 37.585938 152.160156 L 38.214844 142.652344 C 40.644531 133.535156 41.585938 115.933594 41.824219 111.21875 C 42.292969 111.140625 42.765625 111.375 42.84375 111.847656 L 44.097656 119.3125 L 44.097656 119.390625 C 44.097656 123.320312 44.097656 127.644531 44.882812 132.671875 C 45.195312 134.871094 44.410156 139.035156 43.46875 143.671875 C 43.078125 145.246094 42.605469 147.128906 42.136719 149.332031 C 37.273438 167.953125 37.820312 180.292969 37.429688 187.757812 C 37.429688 187.835938 37.429688 187.835938 37.429688 187.914062 C 37.429688 187.992188 37.429688 188.070312 37.429688 188.070312 L 37.429688 189.40625 C 37.273438 194.515625 37.664062 196.871094 37.664062 197.027344 C 37.820312 201.742188 38.214844 207.164062 39 213.214844 C 40.332031 226.417969 42.6875 246.925781 46.136719 263.035156 C 46.921875 266.808594 46.921875 270.738281 46.214844 274.585938 C 44.960938 280.953125 43.46875 291.480469 45.039062 299.496094 C 47.3125 310.96875 54.921875 346.015625 56.023438 350.730469 C 56.023438 350.808594 56.023438 350.96875 55.945312 351.046875 C 55.628906 351.4375 55.316406 351.832031 54.921875 352.144531 C 54.140625 353.011719 53.121094 354.582031 52.726562 357.410156 C 52.335938 360.082031 46.371094 368.726562 47.472656 370.457031 C 48.332031 371.871094 57.511719 373.992188 62.925781 374.699219 C 64.179688 374.855469 63.238281 376.113281 67.160156 375.71875 C 68.496094 375.5625 68.417969 375.40625 68.652344 372.417969 C 68.652344 371.871094 69.359375 370.847656 69.359375 370.21875 C 69.4375 366.683594 69.203125 360.867188 68.808594 351.203125 L 67.554688 321.5 C 67.554688 321.421875 69.671875 303.742188 68.808594 299.890625 C 67.945312 296.039062 70.144531 274.195312 70.144531 274.117188 L 70.144531 254.078125 C 70.144531 253.605469 72.027344 223.039062 73.28125 215.023438 C 74.535156 223.039062 76.417969 253.605469 76.417969 254.078125 L 76.417969 274.117188 C 76.417969 274.195312 78.617188 296.039062 77.753906 299.890625 C 76.890625 303.742188 79.007812 321.421875 79.007812 321.5 L 77.753906 351.203125 C 77.359375 360.867188 77.125 366.683594 77.203125 370.21875 C 77.203125 370.847656 77.910156 371.871094 77.910156 372.417969 C 78.144531 375.40625 78.066406 375.5625 79.398438 375.71875 C 83.324219 376.113281 82.382812 374.855469 83.636719 374.699219 C 89.050781 373.992188 98.226562 371.871094 99.089844 370.457031 C 100.1875 368.726562 94.226562 360.082031 93.835938 357.410156 C 93.441406 354.582031 92.421875 353.011719 91.636719 352.144531 C 91.324219 351.832031 90.933594 351.359375 90.617188 351.046875 C 90.539062 350.96875 90.539062 350.890625 90.539062 350.730469 C 91.558594 346.015625 99.246094 310.96875 101.523438 299.496094 C 103.09375 291.480469 101.601562 280.953125 100.347656 274.585938 C 99.640625 270.738281 99.640625 266.808594 100.425781 263.035156 C 103.875 246.925781 106.230469 226.417969 107.5625 213.214844 C 108.347656 207.164062 108.742188 201.742188 108.898438 197.027344 C 108.898438 196.871094 109.289062 194.515625 109.132812 189.40625 L 109.132812 188.070312 C 109.132812 188.070312 109.132812 187.992188 109.132812 187.914062 C 109.132812 187.835938 109.132812 187.835938 109.132812 187.757812 C 108.742188 180.292969 109.289062 167.953125 104.425781 149.332031 C 103.953125 147.128906 103.484375 145.246094 103.09375 143.671875 C 102.152344 139.035156 101.367188 134.871094 101.679688 132.671875 C 102.464844 127.644531 102.464844 123.320312 102.464844 119.390625 L 102.464844 119.3125 L 103.71875 111.847656 C 103.796875 111.375 104.269531 111.140625 104.738281 111.21875 C 104.976562 115.933594 105.917969 133.535156 108.347656 142.652344 L 108.976562 152.160156 C 109.054688 153.023438 109.132812 153.886719 109.289062 154.753906 C 115.015625 185.320312 118.3125 189.328125 119.015625 194.042969 C 119.015625 194.121094 119.015625 194.277344 118.9375 194.355469 C 118.859375 194.4375 118.78125 194.59375 118.703125 194.75 L 117.214844 201.902344 C 116.898438 203.867188 117.371094 209.835938 117.605469 211.800781 L 118.46875 220.523438 C 118.625 220.996094 119.015625 221.308594 119.488281 221.390625 C 120.117188 221.46875 120.742188 220.917969 120.820312 220.289062 L 121.683594 214.394531 C 121.761719 214.003906 122.078125 213.6875 122.46875 213.6875 C 122.863281 213.6875 123.253906 214.082031 123.253906 214.472656 L 123.960938 225.394531 C 124.039062 226.183594 124.980469 226.96875 125.921875 226.183594 C 126.46875 225.789062 126.785156 225.082031 126.785156 224.453125 L 126.785156 214.238281 C 126.785156 213.921875 126.863281 213.6875 127.019531 213.453125 L 127.648438 213.214844 C 128.039062 213.296875 128.039062 213.296875 128.195312 213.6875 L 132.824219 226.105469 C 133.058594 226.652344 133.6875 226.96875 134.238281 226.8125 L 134.707031 226.652344 C 135.414062 226.496094 135.804688 225.789062 135.570312 225.082031 L 132.039062 213.214844 C 131.882812 212.902344 132.039062 212.585938 132.273438 212.351562 L 132.433594 212.273438 C 132.824219 212.039062 133.296875 212.039062 133.609375 212.429688 L 138.628906 220.761719 C 139.023438 221.152344 139.648438 221.308594 140.121094 221.074219 L 140.984375 220.679688 C 141.609375 220.367188 141.847656 219.582031 141.453125 218.953125 L 137.140625 210.386719 C 137.0625 210.230469 136.039062 207.402344 135.960938 207.164062 L 135.804688 206.695312 L 135.648438 206.144531 C 138.082031 208.1875 140.042969 207.558594 140.828125 207.792969 C 141.925781 208.109375 144.984375 208.265625 145.613281 206.457031 C 146.238281 204.652344 144.433594 205.515625 141.769531 203.945312 Z M 141.769531 203.945312 " fill-opacity="1" fill-rule="nonzero"/></g></g></g></g></g></svg>