<svg xmlns="http://www.w3.org/2000/svg" xmlns:xlink="http://www.w3.org/1999/xlink" width="282" zoomAndPan="magnify" viewBox="0 0 211.5 225" height="300" preserveAspectRatio="xMidYMid meet" version="1.0"><defs><filter x="0%" y="0%" width="100%" height="100%" id="0be3900fcf"><feColorMatrix values="0 0 0 0 1 0 0 0 0 1 0 0 0 0 1 0 0 0 1 0" color-interpolation-filters="sRGB"/></filter><clipPath id="263162b8df"><path d="M 68 161 L 193 161 L 193 224.734375 L 68 224.734375 Z M 68 161 " clip-rule="nonzero"/></clipPath><mask id="394c5faf5c"><g filter="url(#0be3900fcf)"><rect x="-21.15" width="253.8" fill="#000000" y="-22.5" height="270" fill-opacity="0.43"/></g></mask><clipPath id="039252ef74"><path d="M 0.539062 0.492188 L 124.695312 0.492188 L 124.695312 63.707031 L 0.539062 63.707031 Z M 0.539062 0.492188 " clip-rule="nonzero"/></clipPath><clipPath id="baa699a14c"><path d="M 62.617188 0.492188 C 28.332031 0.492188 0.539062 14.644531 0.539062 32.101562 C 0.539062 49.554688 28.332031 63.707031 62.617188 63.707031 C 96.902344 63.707031 124.695312 49.554688 124.695312 32.101562 C 124.695312 14.644531 96.902344 0.492188 62.617188 0.492188 Z M 62.617188 0.492188 " clip-rule="nonzero"/></clipPath><clipPath id="c25f24702a"><rect x="0" width="125" y="0" height="64"/></clipPath><clipPath id="e47dd3c276"><path d="M 1 0.632812 L 210 0.632812 L 210 195.632812 L 1 195.632812 Z M 1 0.632812 " clip-rule="nonzero"/></clipPath></defs><g clip-path="url(#263162b8df)"><g mask="url(#394c5faf5c)"><g transform="matrix(1, 0, 0, 1, 68, 161)"><g clip-path="url(#c25f24702a)"><g clip-path="url(#039252ef74)"><g clip-path="url(#baa699a14c)"><path fill="#dfe9ed" d="M 0.539062 0.492188 L 124.695312 0.492188 L 124.695312 63.707031 L 0.539062 63.707031 Z M 0.539062 0.492188 " fill-opacity="1" fill-rule="nonzero"/></g></g></g></g></g></g><g clip-path="url(#e47dd3c276)"><path fill="#c7c8c8" d="M 163.316406 112.261719 C 160.152344 115.257812 156.792969 119.921875 155.902344 121.332031 C 152.980469 125.933594 152.371094 131.144531 150.15625 135.949219 C 150.148438 137.777344 150.09375 139.617188 149.90625 141.414062 C 149.578125 144.726562 148.296875 148.140625 147.4375 151.429688 C 145.71875 157.960938 142.3125 164.800781 139.535156 170.964844 C 138.480469 173.304688 136.578125 175.039062 135.242188 177.089844 C 135.734375 178.9375 136.648438 180.871094 137.117188 181.703125 C 138.839844 184.734375 142.003906 185.085938 145.195312 185.4375 C 148.847656 185.835938 152.464844 185.929688 156.191406 185.929688 C 158.601562 185.929688 164.847656 184.539062 166.578125 186.316406 C 166.753906 186.496094 166.886719 186.710938 166.984375 186.945312 C 167.734375 186.875 168.480469 186.8125 169.207031 186.820312 C 171.769531 186.847656 172.785156 188.128906 175.039062 188.828125 C 176.609375 189.324219 179.90625 189.726562 178.238281 192.214844 C 177.171875 193.8125 175.140625 193.125 173.683594 192.769531 C 173.144531 193.652344 171.539062 194.175781 170.277344 193.773438 C 168.375 193.171875 167.5 191.871094 165.890625 191.402344 C 166.882812 192.953125 164.484375 194.003906 161.800781 193.289062 C 159.839844 192.769531 158.425781 191.921875 156.742188 191.429688 C 156.894531 192.695312 155.832031 193.6875 153.773438 193.222656 C 151.363281 192.667969 149.136719 192.199219 146.542969 191.941406 C 143.113281 191.601562 139.035156 192.089844 135.765625 191.054688 C 134.410156 190.628906 133.207031 189.75 131.90625 189.113281 C 130.195312 188.261719 128.753906 188.308594 127.023438 187.714844 C 123.25 186.4375 123.765625 182.601562 124.539062 179.253906 C 124.875 177.800781 126.523438 173.667969 125.976562 171.300781 C 125.175781 171.871094 124.332031 172.382812 123.378906 172.75 C 121.5 173.460938 119.109375 173.582031 117.160156 174.136719 C 114.960938 174.769531 112.960938 175.339844 110.640625 175.6875 C 108.957031 175.933594 107.050781 175.898438 105.347656 176.078125 C 104.878906 178.933594 106.636719 183.292969 107.890625 184.882812 C 109.363281 186.738281 111.078125 187.242188 113.332031 187.265625 C 115.230469 187.292969 117.449219 187.09375 117.785156 189.054688 C 119.015625 189.328125 120.207031 189.75 121.410156 189.988281 C 122.847656 190.265625 125.296875 190.386719 126.410156 191.433594 C 128 192.925781 127.425781 195.242188 124.988281 194.835938 C 124.167969 194.695312 123.078125 194.207031 122.070312 193.761719 C 121.601562 194.886719 120.007812 195.667969 118.316406 195.007812 C 116.992188 194.492188 115.914062 193.148438 114.683594 192.269531 C 114.832031 192.820312 114.808594 193.375 114.410156 193.902344 C 113.417969 195.199219 111.894531 194.550781 110.808594 194 C 109.792969 193.488281 109.011719 192.53125 107.726562 192.109375 C 106.875 191.828125 105.800781 191.667969 104.871094 191.449219 C 103.359375 192.472656 102.03125 193.621094 99.867188 193.5 C 96.820312 193.324219 95.675781 190.003906 99.160156 189.683594 C 99.566406 186.496094 96.28125 186.195312 94.875 184.203125 C 93.382812 182.089844 94.945312 180.753906 95.976562 179.179688 C 90.585938 178.710938 86.847656 175.78125 82.511719 172.46875 C 80.226562 172.398438 78.101562 172.796875 78.101562 172.796875 C 51.621094 181.035156 32.324219 178.140625 32.324219 178.140625 C 16.390625 176.136719 10.554688 166.5625 10.554688 166.5625 C 9.207031 164.339844 3.152344 159.441406 3.152344 159.441406 C 0.683594 157.886719 1.804688 156.773438 1.804688 156.773438 C 7.863281 156.992188 16.164062 164.339844 16.164062 164.339844 C 37.933594 175.25 77.203125 162.78125 77.203125 162.78125 C 76.078125 157.660156 75.855469 141.859375 75.855469 141.859375 C 73.386719 108.914062 96.949219 83.539062 96.949219 83.539062 C 108.394531 70.628906 136.894531 51.265625 136.894531 51.265625 C 142.023438 45.539062 142.230469 34.699219 141.921875 28.980469 C 141.457031 28.410156 140.960938 27.847656 140.429688 27.28125 C 138.4375 25.160156 135.28125 24.003906 133.582031 21.824219 C 131.222656 18.792969 132.6875 15.023438 135.308594 12.707031 C 138.351562 10.023438 141.730469 9.429688 145.421875 11.25 C 148.449219 12.75 151.179688 15.195312 153.113281 18.109375 C 156.234375 14.308594 161.523438 11.058594 165.164062 8.925781 C 168.148438 7.183594 171.445312 6.078125 174.820312 5.585938 C 178.414062 5.054688 182.03125 5.679688 185.589844 4.960938 C 190.839844 3.90625 195.339844 1.21875 200.847656 0.960938 C 203.445312 0.835938 206.042969 0.652344 207.527344 3.015625 C 208.554688 4.671875 208.785156 6.617188 208.308594 8.410156 C 209.578125 11.667969 210.691406 15.542969 209.089844 18.71875 C 207.734375 21.40625 205.296875 23.867188 202.496094 25.550781 C 203.683594 29.667969 198.234375 35.398438 196.070312 38.359375 C 193.058594 42.5 189.308594 45.753906 185.472656 49.007812 C 185.136719 50.277344 184.886719 51.488281 184.6875 52.375 C 183.902344 55.894531 183.226562 59.242188 182.683594 62.839844 C 181.613281 69.976562 180.941406 77.3125 180.199219 84.652344 C 179.894531 87.695312 179.96875 90.761719 180.609375 93.707031 C 181.714844 95.140625 182.71875 96.746094 183.960938 98.0625 C 185.996094 100.222656 188.257812 101.957031 190.296875 104.019531 C 192.558594 106.308594 196.117188 107.683594 197.878906 110.253906 C 199.335938 112.402344 201.125 115.347656 201.742188 117.816406 C 202.09375 119.207031 203.582031 122.347656 202.140625 123.335938 C 200.617188 124.378906 199.554688 122.585938 198.890625 121.074219 C 198.304688 122.171875 197.152344 122.421875 195.910156 121.160156 C 195.066406 120.296875 194.640625 118.761719 194.542969 117.390625 C 194.148438 117.074219 193.78125 116.671875 193.492188 116.25 C 192.355469 116.957031 190.898438 115.070312 190.289062 113.253906 C 189.382812 113.460938 188.464844 113.757812 187.828125 114.292969 C 188.019531 114.492188 188.195312 114.683594 188.335938 114.871094 C 189.304688 116.144531 190.1875 117.609375 191.144531 118.976562 C 192.167969 120.449219 192.820312 122.101562 193.605469 123.65625 C 193.964844 124.367188 194.894531 125.097656 194.402344 125.894531 C 193.996094 126.542969 193.078125 126.628906 192.367188 126.347656 C 192.378906 126.484375 192.375 126.605469 192.339844 126.726562 C 191.726562 128.796875 189.03125 127.742188 188.21875 126.550781 C 187.335938 125.253906 187.8125 123.566406 186.996094 122.207031 C 186.292969 121.046875 185.011719 120.382812 184.167969 119.398438 C 184.867188 122.082031 187.082031 127.359375 183.78125 126.0625 C 182.367188 125.507812 182.507812 123.089844 182.011719 122.042969 C 181.355469 120.683594 180.382812 119.871094 179.140625 119.089844 C 178.664062 118.789062 178.089844 118.152344 177.523438 118.035156 C 176.667969 117.84375 175.996094 118.855469 175.03125 118.492188 C 173.84375 118.0625 173.347656 116.21875 172.300781 115.421875 C 169.976562 113.652344 166.226562 112.375 163.316406 112.261719 Z M 163.316406 112.261719 " fill-opacity="1" fill-rule="nonzero"/></g></svg>